<svg width="163" height="36" viewBox="0 0 163 36" fill="none" xmlns="http://www.w3.org/2000/svg">
<path d="M0.275568 28.5V2.31818H5.81108V13.1207H17.0483V2.31818H22.571V28.5H17.0483V17.6847H5.81108V28.5H0.275568ZM27.0327 28.5V8.86364H32.4787V28.5H27.0327ZM29.7685 6.33239C28.9588 6.33239 28.2642 6.06392 27.6847 5.52699C27.1136 4.98153 26.8281 4.32954 26.8281 3.57102C26.8281 2.82102 27.1136 2.17756 27.6847 1.64062C28.2642 1.09517 28.9588 0.822442 29.7685 0.822442C30.5781 0.822442 31.2685 1.09517 31.8395 1.64062C32.419 2.17756 32.7088 2.82102 32.7088 3.57102C32.7088 4.32954 32.419 4.98153 31.8395 5.52699C31.2685 6.06392 30.5781 6.33239 29.7685 6.33239ZM36.8413 28.5V8.86364H42.1211V12.2898H42.3256C42.6836 11.071 43.2844 10.1506 44.1282 9.52841C44.9719 8.89773 45.9435 8.58239 47.043 8.58239C47.3157 8.58239 47.6097 8.59943 47.9251 8.63352C48.2404 8.66761 48.5174 8.71449 48.756 8.77415V13.6065C48.5004 13.5298 48.1467 13.4616 47.695 13.402C47.2433 13.3423 46.8299 13.3125 46.4549 13.3125C45.6538 13.3125 44.9379 13.4872 44.3072 13.8366C43.685 14.1776 43.1907 14.6548 42.8242 15.2685C42.4663 15.8821 42.2873 16.5895 42.2873 17.3906V28.5H36.8413ZM59.6065 28.8835C57.5866 28.8835 55.848 28.4744 54.3906 27.6562C52.9418 26.8295 51.8253 25.6619 51.0412 24.1534C50.2571 22.6364 49.8651 20.8423 49.8651 18.7713C49.8651 16.7514 50.2571 14.9787 51.0412 13.4531C51.8253 11.9276 52.929 10.7386 54.3523 9.88636C55.7841 9.03409 57.4631 8.60795 59.3892 8.60795C60.6847 8.60795 61.8906 8.81676 63.0071 9.23438C64.1321 9.64347 65.1122 10.2614 65.9474 11.0881C66.7912 11.9148 67.4474 12.9545 67.9162 14.2074C68.3849 15.4517 68.6193 16.9091 68.6193 18.5795V20.0753H52.0384V16.7003H63.4929C63.4929 15.9162 63.3224 15.2216 62.9815 14.6165C62.6406 14.0114 62.1676 13.5384 61.5625 13.1974C60.9659 12.848 60.2713 12.6733 59.4787 12.6733C58.652 12.6733 57.919 12.8651 57.2798 13.2486C56.6491 13.6236 56.1548 14.1307 55.7969 14.7699C55.4389 15.4006 55.2557 16.1037 55.2472 16.8793V20.0881C55.2472 21.0597 55.4261 21.8991 55.7841 22.6065C56.1506 23.3139 56.6662 23.8594 57.331 24.2429C57.9957 24.6264 58.7841 24.8182 59.696 24.8182C60.3011 24.8182 60.8551 24.733 61.358 24.5625C61.8608 24.392 62.2912 24.1364 62.6491 23.7955C63.0071 23.4545 63.2798 23.0369 63.4673 22.5426L68.5043 22.875C68.2486 24.0852 67.7244 25.142 66.9318 26.0455C66.1477 26.9403 65.1335 27.6392 63.8892 28.142C62.6534 28.6364 61.2259 28.8835 59.6065 28.8835ZM95.3764 11.4844H89.777C89.6747 10.7599 89.4659 10.1165 89.1506 9.55398C88.8352 8.98295 88.4304 8.49716 87.9361 8.09659C87.4418 7.69602 86.8707 7.3892 86.223 7.17614C85.5838 6.96307 84.8892 6.85653 84.1392 6.85653C82.7841 6.85653 81.6037 7.19318 80.598 7.86648C79.5923 8.53125 78.8125 9.50284 78.2585 10.7812C77.7045 12.0511 77.4276 13.5937 77.4276 15.4091C77.4276 17.2756 77.7045 18.8437 78.2585 20.1136C78.821 21.3835 79.6051 22.3423 80.6108 22.9901C81.6165 23.6378 82.7798 23.9616 84.1009 23.9616C84.8423 23.9616 85.5284 23.8636 86.1591 23.6676C86.7983 23.4716 87.3651 23.1861 87.8594 22.8111C88.3537 22.4276 88.7628 21.9631 89.0866 21.4176C89.419 20.8722 89.6491 20.25 89.777 19.5511L95.3764 19.5767C95.2315 20.7784 94.8693 21.9375 94.2898 23.054C93.7188 24.1619 92.9474 25.1548 91.9759 26.0327C91.0128 26.902 89.8622 27.5923 88.5241 28.1037C87.1946 28.6065 85.6903 28.858 84.0114 28.858C81.6761 28.858 79.5881 28.3295 77.7472 27.2727C75.9148 26.2159 74.4659 24.6861 73.4006 22.6832C72.3438 20.6804 71.8153 18.2557 71.8153 15.4091C71.8153 12.554 72.3523 10.125 73.4261 8.12216C74.5 6.11932 75.9574 4.59375 77.7983 3.54545C79.6392 2.48864 81.7102 1.96023 84.0114 1.96023C85.5284 1.96023 86.9347 2.17329 88.2301 2.59943C89.5341 3.02557 90.6889 3.64773 91.6946 4.46591C92.7003 5.27557 93.5185 6.26846 94.1491 7.4446C94.7884 8.62074 95.1974 9.96733 95.3764 11.4844ZM108.116 28.8835C106.13 28.8835 104.413 28.4616 102.964 27.6179C101.523 26.7656 100.411 25.581 99.6271 24.0639C98.843 22.5384 98.451 20.7699 98.451 18.7585C98.451 16.7301 98.843 14.9574 99.6271 13.4403C100.411 11.9148 101.523 10.7301 102.964 9.88636C104.413 9.03409 106.13 8.60795 108.116 8.60795C110.102 8.60795 111.815 9.03409 113.255 9.88636C114.704 10.7301 115.82 11.9148 116.604 13.4403C117.388 14.9574 117.781 16.7301 117.781 18.7585C117.781 20.7699 117.388 22.5384 116.604 24.0639C115.82 25.581 114.704 26.7656 113.255 27.6179C111.815 28.4616 110.102 28.8835 108.116 28.8835ZM108.141 24.6648C109.045 24.6648 109.799 24.4091 110.404 23.8977C111.009 23.3778 111.465 22.6705 111.772 21.7756C112.087 20.8807 112.245 19.8622 112.245 18.7202C112.245 17.5781 112.087 16.5597 111.772 15.6648C111.465 14.7699 111.009 14.0625 110.404 13.5426C109.799 13.0227 109.045 12.7628 108.141 12.7628C107.229 12.7628 106.462 13.0227 105.84 13.5426C105.227 14.0625 104.762 14.7699 104.447 15.6648C104.14 16.5597 103.987 17.5781 103.987 18.7202C103.987 19.8622 104.14 20.8807 104.447 21.7756C104.762 22.6705 105.227 23.3778 105.84 23.8977C106.462 24.4091 107.229 24.6648 108.141 24.6648ZM130.194 28.8835C128.208 28.8835 126.491 28.4616 125.042 27.6179C123.602 26.7656 122.489 25.581 121.705 24.0639C120.921 22.5384 120.529 20.7699 120.529 18.7585C120.529 16.7301 120.921 14.9574 121.705 13.4403C122.489 11.9148 123.602 10.7301 125.042 9.88636C126.491 9.03409 128.208 8.60795 130.194 8.60795C132.18 8.60795 133.893 9.03409 135.333 9.88636C136.782 10.7301 137.898 11.9148 138.683 13.4403C139.467 14.9574 139.859 16.7301 139.859 18.7585C139.859 20.7699 139.467 22.5384 138.683 24.0639C137.898 25.581 136.782 26.7656 135.333 27.6179C133.893 28.4616 132.18 28.8835 130.194 28.8835ZM130.219 24.6648C131.123 24.6648 131.877 24.4091 132.482 23.8977C133.087 23.3778 133.543 22.6705 133.85 21.7756C134.165 20.8807 134.323 19.8622 134.323 18.7202C134.323 17.5781 134.165 16.5597 133.85 15.6648C133.543 14.7699 133.087 14.0625 132.482 13.5426C131.877 13.0227 131.123 12.7628 130.219 12.7628C129.308 12.7628 128.54 13.0227 127.918 13.5426C127.305 14.0625 126.84 14.7699 126.525 15.6648C126.218 16.5597 126.065 17.5781 126.065 18.7202C126.065 19.8622 126.218 20.8807 126.525 21.7756C126.84 22.6705 127.305 23.3778 127.918 23.8977C128.54 24.4091 129.308 24.6648 130.219 24.6648ZM143.4 35.8636V8.86364H148.769V12.1619H149.012C149.251 11.6335 149.596 11.0966 150.048 10.5511C150.508 9.99716 151.104 9.53693 151.837 9.17045C152.579 8.79545 153.499 8.60795 154.599 8.60795C156.031 8.60795 157.352 8.98295 158.562 9.73295C159.772 10.4744 160.739 11.5952 161.464 13.0952C162.188 14.5866 162.55 16.4574 162.55 18.7074C162.55 20.8977 162.197 22.7472 161.489 24.2557C160.79 25.7557 159.836 26.8935 158.626 27.669C157.424 28.4361 156.077 28.8196 154.586 28.8196C153.529 28.8196 152.63 28.6449 151.888 28.2955C151.156 27.946 150.555 27.5071 150.086 26.9787C149.617 26.4418 149.259 25.9006 149.012 25.3551H148.846V35.8636H143.4ZM148.731 18.6818C148.731 19.8494 148.893 20.8679 149.217 21.7372C149.54 22.6065 150.009 23.2841 150.623 23.7699C151.237 24.2472 151.982 24.4858 152.86 24.4858C153.746 24.4858 154.496 24.2429 155.11 23.7571C155.724 23.2628 156.188 22.581 156.504 21.7116C156.827 20.8338 156.989 19.8239 156.989 18.6818C156.989 17.5483 156.832 16.5511 156.516 15.6903C156.201 14.8295 155.737 14.1562 155.123 13.6705C154.509 13.1847 153.755 12.9418 152.86 12.9418C151.974 12.9418 151.224 13.1761 150.61 13.6449C150.005 14.1136 149.54 14.7784 149.217 15.6392C148.893 16.5 148.731 17.5142 148.731 18.6818Z" fill="url(#paint0_linear_2_2543)"/>
<defs>
<linearGradient id="paint0_linear_2_2543" x1="1.35449" y1="18.6113" x2="149.825" y2="19.4332" gradientUnits="userSpaceOnUse">
<stop stop-color="#E6A762"/>
<stop offset="0.5" stop-color="#AF69A5"/>
<stop offset="1" stop-color="#782CE7"/>
</linearGradient>
</defs>
</svg>
