<svg width="21" height="21" viewBox="0 0 21 21" fill="none" xmlns="http://www.w3.org/2000/svg">
<path d="M5.5 5.49996C5.5 5.27895 5.5878 5.06698 5.74408 4.9107C5.90036 4.75442 6.11232 4.66663 6.33333 4.66663H14.6667C14.8877 4.66663 15.0996 4.75442 15.2559 4.9107C15.4122 5.06698 15.5 5.27895 15.5 5.49996C15.5 5.72097 15.4122 5.93293 15.2559 6.08921C15.0996 6.2455 14.8877 6.33329 14.6667 6.33329H6.33333C6.11232 6.33329 5.90036 6.2455 5.74408 6.08921C5.5878 5.93293 5.5 5.72097 5.5 5.49996ZM5.5 8.83329C5.5 8.61228 5.5878 8.40032 5.74408 8.24404C5.90036 8.08776 6.11232 7.99996 6.33333 7.99996H14.6667C14.8877 7.99996 15.0996 8.08776 15.2559 8.24404C15.4122 8.40032 15.5 8.61228 15.5 8.83329C15.5 9.05431 15.4122 9.26627 15.2559 9.42255C15.0996 9.57883 14.8877 9.66663 14.6667 9.66663H6.33333C6.11232 9.66663 5.90036 9.57883 5.74408 9.42255C5.5878 9.26627 5.5 9.05431 5.5 8.83329ZM6.33333 11.3333C6.11232 11.3333 5.90036 11.4211 5.74408 11.5774C5.5878 11.7337 5.5 11.9456 5.5 12.1666C5.5 12.3876 5.5878 12.5996 5.74408 12.7559C5.90036 12.9122 6.11232 13 6.33333 13H14.6667C14.8877 13 15.0996 12.9122 15.2559 12.7559C15.4122 12.5996 15.5 12.3876 15.5 12.1666C15.5 11.9456 15.4122 11.7337 15.2559 11.5774C15.0996 11.4211 14.8877 11.3333 14.6667 11.3333H6.33333ZM5.5 15.5C5.5 15.2789 5.5878 15.067 5.74408 14.9107C5.90036 14.7544 6.11232 14.6666 6.33333 14.6666H9.66667C9.88768 14.6666 10.0996 14.7544 10.2559 14.9107C10.4122 15.067 10.5 15.2789 10.5 15.5C10.5 15.721 10.4122 15.9329 10.2559 16.0892C10.0996 16.2455 9.88768 16.3333 9.66667 16.3333H6.33333C6.11232 16.3333 5.90036 16.2455 5.74408 16.0892C5.5878 15.9329 5.5 15.721 5.5 15.5Z" fill="white"/>
<path fill-rule="evenodd" clip-rule="evenodd" d="M2.16663 3.83331C2.16663 3.17027 2.43002 2.53439 2.89886 2.06555C3.3677 1.59671 4.00358 1.33331 4.66663 1.33331H16.3333C16.9963 1.33331 17.6322 1.59671 18.1011 2.06555C18.5699 2.53439 18.8333 3.17027 18.8333 3.83331V17.1666C18.8333 17.8297 18.5699 18.4656 18.1011 18.9344C17.6322 19.4033 16.9963 19.6666 16.3333 19.6666H4.66663C4.00358 19.6666 3.3677 19.4033 2.89886 18.9344C2.43002 18.4656 2.16663 17.8297 2.16663 17.1666V3.83331ZM4.66663 2.99998H16.3333C16.5543 2.99998 16.7663 3.08778 16.9225 3.24406C17.0788 3.40034 17.1666 3.6123 17.1666 3.83331V17.1666C17.1666 17.3877 17.0788 17.5996 16.9225 17.7559C16.7663 17.9122 16.5543 18 16.3333 18H4.66663C4.44561 18 4.23365 17.9122 4.07737 17.7559C3.92109 17.5996 3.83329 17.3877 3.83329 17.1666V3.83331C3.83329 3.6123 3.92109 3.40034 4.07737 3.24406C4.23365 3.08778 4.44561 2.99998 4.66663 2.99998Z" fill="white"/>
</svg>
