<svg width="25" height="25" viewBox="0 0 25 25" fill="none" xmlns="http://www.w3.org/2000/svg">
<path d="M12.5 15.5C14.1569 15.5 15.5 14.1569 15.5 12.5C15.5 10.8431 14.1569 9.5 12.5 9.5C10.8431 9.5 9.5 10.8431 9.5 12.5C9.5 14.1569 10.8431 15.5 12.5 15.5Z" stroke="black" stroke-opacity="0.45" stroke-width="1.5"/>
<path d="M14.265 2.652C13.898 2.5 13.432 2.5 12.5 2.5C11.568 2.5 11.102 2.5 10.735 2.652C10.4921 2.75251 10.2715 2.8999 10.0857 3.08572C9.89986 3.27155 9.75248 3.49218 9.65196 3.735C9.55996 3.958 9.52296 4.219 9.50896 4.598C9.50245 4.87193 9.42657 5.13973 9.2884 5.37635C9.15024 5.61298 8.95432 5.81069 8.71896 5.951C8.47977 6.08477 8.21055 6.15567 7.93649 6.15707C7.66244 6.15847 7.39251 6.09032 7.15196 5.959C6.81596 5.781 6.57296 5.683 6.33196 5.651C5.80628 5.58187 5.27466 5.72431 4.85396 6.047C4.53996 6.29 4.30596 6.693 3.83996 7.5C3.37396 8.307 3.13996 8.71 3.08896 9.105C3.0546 9.36545 3.07188 9.63012 3.13983 9.88389C3.20778 10.1377 3.32505 10.3756 3.48496 10.584C3.63296 10.776 3.83996 10.937 4.16096 11.139C4.63396 11.436 4.93796 11.942 4.93796 12.5C4.93796 13.058 4.63396 13.564 4.16096 13.86C3.83996 14.063 3.63196 14.224 3.48496 14.416C3.32505 14.6244 3.20778 14.8623 3.13983 15.1161C3.07188 15.3699 3.0546 15.6345 3.08896 15.895C3.14096 16.289 3.37396 16.693 3.83896 17.5C4.30596 18.307 4.53896 18.71 4.85396 18.953C5.0624 19.1129 5.3003 19.2302 5.55407 19.2981C5.80784 19.3661 6.07251 19.3834 6.33296 19.349C6.57296 19.317 6.81596 19.219 7.15196 19.041C7.39251 18.9097 7.66244 18.8415 7.93649 18.8429C8.21055 18.8443 8.47977 18.9152 8.71896 19.049C9.20196 19.329 9.48896 19.844 9.50896 20.402C9.52296 20.782 9.55896 21.042 9.65196 21.265C9.75248 21.5078 9.89986 21.7284 10.0857 21.9143C10.2715 22.1001 10.4921 22.2475 10.735 22.348C11.102 22.5 11.568 22.5 12.5 22.5C13.432 22.5 13.898 22.5 14.265 22.348C14.5078 22.2475 14.7284 22.1001 14.9142 21.9143C15.1001 21.7284 15.2474 21.5078 15.348 21.265C15.44 21.042 15.477 20.782 15.491 20.402C15.511 19.844 15.798 19.328 16.281 19.049C16.5202 18.9152 16.7894 18.8443 17.0634 18.8429C17.3375 18.8415 17.6074 18.9097 17.848 19.041C18.184 19.219 18.427 19.317 18.667 19.349C18.9274 19.3834 19.1921 19.3661 19.4459 19.2981C19.6996 19.2302 19.9375 19.1129 20.146 18.953C20.461 18.711 20.694 18.307 21.16 17.5C21.626 16.693 21.86 16.29 21.911 15.895C21.9453 15.6345 21.928 15.3699 21.8601 15.1161C21.7921 14.8623 21.6749 14.6244 21.515 14.416C21.367 14.224 21.16 14.063 20.839 13.861C20.6049 13.7184 20.4108 13.5187 20.2749 13.2807C20.139 13.0427 20.0658 12.7741 20.062 12.5C20.062 11.942 20.366 11.436 20.839 11.14C21.16 10.937 21.368 10.776 21.515 10.584C21.6749 10.3756 21.7921 10.1377 21.8601 9.88389C21.928 9.63012 21.9453 9.36545 21.911 9.105C21.859 8.711 21.626 8.307 21.161 7.5C20.694 6.693 20.461 6.29 20.146 6.047C19.9375 5.88709 19.6996 5.76981 19.4459 5.70187C19.1921 5.63392 18.9274 5.61664 18.667 5.651C18.427 5.683 18.184 5.781 17.847 5.959C17.6065 6.09014 17.3368 6.1582 17.0629 6.1568C16.7891 6.1554 16.52 6.08459 16.281 5.951C16.0456 5.81069 15.8497 5.61298 15.7115 5.37635C15.5734 5.13973 15.4975 4.87193 15.491 4.598C15.477 4.218 15.441 3.958 15.348 3.735C15.2474 3.49218 15.1001 3.27155 14.9142 3.08572C14.7284 2.8999 14.5078 2.75251 14.265 2.652Z" stroke="black" stroke-opacity="0.45" stroke-width="1.5"/>
</svg>
