<svg width="24" height="25" viewBox="0 0 24 25" fill="none" xmlns="http://www.w3.org/2000/svg">
<path fill-rule="evenodd" clip-rule="evenodd" d="M8 7.64551C8 6.58464 8.42143 5.56723 9.17157 4.81708C9.92172 4.06694 10.9391 3.64551 12 3.64551C13.0609 3.64551 14.0783 4.06694 14.8284 4.81708C15.5786 5.56723 16 6.58464 16 7.64551C16 8.70637 15.5786 9.72379 14.8284 10.4739C14.0783 11.2241 13.0609 11.6455 12 11.6455C10.9391 11.6455 9.92172 11.2241 9.17157 10.4739C8.42143 9.72379 8 8.70637 8 7.64551ZM8 13.6455C6.67392 13.6455 5.40215 14.1723 4.46447 15.11C3.52678 16.0477 3 17.3194 3 18.6455C3 19.4412 3.31607 20.2042 3.87868 20.7668C4.44129 21.3294 5.20435 21.6455 6 21.6455H18C18.7956 21.6455 19.5587 21.3294 20.1213 20.7668C20.6839 20.2042 21 19.4412 21 18.6455C21 17.3194 20.4732 16.0477 19.5355 15.11C18.5979 14.1723 17.3261 13.6455 16 13.6455H8Z" fill="#5937B7"/>
</svg>
